# xmcd CD database file
# Copyright (C) 1996 Ti Kan
#
# Track frame offsets:
# 	182
# 	13820
# 	33022
# 	49262
# 	65192
# 	82050
# 	100615
# 	114517
# 	130695
# 	150185
# 	162937
# 	180032
# 	193717
# 	209650
# 	229120
# 	243792
# 	261260
# 	278770
# 	295915
# 	310960
#
# Disc length: 4270 seconds
#
# Revision: 1
# Processed by: cddbd v1.4b41PL1 Copyright (c) Steve Scherf et al.
# Submitted via: DiscPlay 3.4.1
#
DISCID=0e10ac14
DTITLE=Saturday Night Blues - The Great Canadian Blues Project - Vol 1.
DYEAR=1900
DGENRE=
TTITLE0=Danser le Loup
TTITLE1=No More Doggin'
TTITLE2=Path To The Liquor Store
TTITLE3=I Need A Woman
TTITLE4=Just Your Fool
TTITLE5=Thinking About You
TTITLE6=Bert's Boogie
TTITLE7=Bad Luck Blues
TTITLE8=Love U 2 Much
TTITLE9=Pussy Footin'
TTITLE10=Rockin' Little Boogie
TTITLE11=Goin' Down South
TTITLE12=Satellite Dish
TTITLE13=Nothing To Show
TTITLE14=TV Preacher Blues
TTITLE15=Love Of A Woman
TTITLE16=Hey Rosita
TTITLE17=Tombstone Boogie
TTITLE18=The Drifter
TTITLE19=Clear But Confusing
EXTD=
EXTT0=Gerald Laroche
EXTT1=Colin James
EXTT2=Jackson Delta
EXTT3=Johnny V and The Houserockers
EXTT4=Dutch Mason
EXTT5=Lester Quitzau
EXTT6=Amos Garrett
EXTT7=Ken Hamm
EXTT8=Rita Chiarelli and The Road Rockets
EXTT9=Dean Cottrill
EXTT10=Downchild
EXTT11=Bill Bourne
EXTT12=Brent Sam Parkin and The Stingers
EXTT13=Drew Nelson Band
EXTT14=Big Dave McLean and The Muddy-Tones
EXTT15=Jack Semple and The Luxury Blues Band
EXTT16=Paul James
EXTT17=David Raven
EXTT18=Roger Howse
EXTT19=Rusty Red and The Southside Shuffle
PLAYORDER=
